# xmcd
#
# Track frame offsets:
#	150
#	12260
#	26391
#	38190
#	51049
#	64187
#	78209
#	92177
#	106020
#	119260
#	131903
#	144269
#	155576
#	166139
#	179340
#	189997
#	201564
#	213932
#
# Disc length: 2990 seconds
#
# Revision: 0
# Processed by: cddbd v1.5.1PL0 Copyright (c) Steve Scherf et al.
# Submitted via: dBpowerAMP V4.0
#
DISCID=ef0bac12
DTITLE=T-Bone Walker - The Blues 1929-1950 CD2/2
DYEAR=1900
DGENRE=Blues
TTITLE0=Lonesome Woman Blues
TTITLE1=Description Blues
TTITLE2=T-Bone Shuffle
TTITLE3=Prison Blues
TTITLE4=I Wish You Were Mine
TTITLE5=She's the No Sleepinest Woman
TTITLE6=Plain Old Down Blues
TTITLE7=Go BackTo The One I love
TTITLE8=You're My Best Poker Hand
TTITLE9=West Side Baby
TTITLE10=Glamour Girl
TTITLE11=Strollin' With Bone
TTITLE12=The Sun Went Down
TTITLE13=You Don't Love Me
TTITLE14=Travelin' Blues
TTITLE15=The Hustle is On
TTITLE16=Baby Broke My Heart
TTITLE17=I Walk Away
EXTD=
EXTT0=
EXTT1=
EXTT2=
EXTT3=
EXTT4=
EXTT5=
EXTT6=
EXTT7=
EXTT8=
EXTT9=
EXTT10=
EXTT11=
EXTT12=
EXTT13=
EXTT14=
EXTT15=
EXTT16=
EXTT17=
PLAYORDER=
